<?xml version="1.0" encoding="UTF-8" standalone="no"?>
<!DOCTYPE svg PUBLIC "-//W3C//DTD SVG 1.1//EN" "http://www.w3.org/Graphics/SVG/1.1/DTD/svg11.dtd">
<svg width="100%" height="100%" viewBox="0 0 402 287" version="1.1" xmlns="http://www.w3.org/2000/svg" xmlns:xlink="http://www.w3.org/1999/xlink" xml:space="preserve" xmlns:serif="http://www.serif.com/" style="fill-rule:evenodd;clip-rule:evenodd;stroke-linejoin:round;stroke-miterlimit:2;">
    <g id="Artboard1" transform="matrix(1,0,0,1,-33.4249,-71.0873)">
        <rect x="33.425" y="71.087" width="401.677" height="286.724" style="fill:none;"/>
        <g transform="matrix(1,0,0,1,-2.28652,-4.05076)">
            <path d="M46.36,86.78C68.91,87.16 91.48,86.16 114,87.28C125.12,87.45 137.13,92.2 142.8,102.26C148.22,111.05 147.81,123.19 141.32,131.32C137.35,136.47 131.26,139.25 125.44,141.75C137.02,152.58 143.39,167.5 153.5,179.52C156.4,183.24 161.01,184.69 165.4,185.78C165.38,188.46 165.39,191.141 165.39,193.83C154.01,194.26 142.6,194.28 131.22,193.84C121.57,180.67 115.03,165.56 105.89,152.09C102.41,146.32 95.07,147.26 89.32,147C89.29,155.67 89.27,164.34 89.31,173.01C89.35,176.62 89.91,180.75 92.84,183.21C96.22,185.32 100.44,185.13 104.26,185.61C104.25,188.34 104.24,191.07 104.22,193.81C84.92,194.39 65.59,194.12 46.27,193.96C46.26,191.16 46.27,188.36 46.27,185.56C50.02,185.18 54.03,185.29 57.44,183.49C61.15,181.01 61.28,176.03 61.36,172.02C61.33,150.67 61.36,129.33 61.35,107.98C61.29,104.06 60.67,99.22 56.8,97.18C53.49,95.69 49.75,95.81 46.2,95.51C46.26,92.6 46.3,89.69 46.36,86.78ZM89.32,96.62C89.3,110.18 89.25,123.74 89.35,137.29C97.79,136.81 108.69,138.21 113.99,129.99C118.58,121.78 118.81,110.44 113.39,102.57C107.19,96.36 97.48,96.68 89.32,96.62Z" style="fill:rgb(253,253,252);"/>
        </g>
        <g transform="matrix(1,0,0,1,-1.81658,-4.10568)">
            <path d="M160.37,111.36C174.54,103.2 191.89,103.57 207.65,105.43C216.63,106.18 226.31,112.35 226.99,122.07C227.98,136.48 226.59,151.02 227.65,165.42C228.05,169.38 232.18,169.59 235.24,168.74C236.63,155 245.9,142.82 258.68,137.66C271.67,132.47 287.05,131.24 300.11,136.82C307.37,139.69 312.28,148.84 308.15,156.06C304.96,162.56 294.76,163.31 290.6,157.43C287.2,153.47 287.79,147.48 284.31,143.67C277.26,139.94 268.3,144.95 266.47,152.43C263.23,163.73 263.73,176.3 267.58,187.39C270.5,195.89 280.66,199.23 288.8,196.82C295.29,195.43 299.63,189.94 302.78,184.48C305.63,185.81 308.5,187.11 311.36,188.41C305.95,202.89 289.55,209.7 274.96,208.82C257.459,209.2 238.58,197.88 235.7,179.61C224.03,184.39 208.1,184.01 199.75,173.33C188.36,181.26 173.04,185.35 159.69,180.31C149.14,175.79 148.38,160.65 156.2,153.22C167.69,142.03 183.79,137.91 198.3,132.12C197.96,127.22 199.4,121.26 195.74,117.3C190.93,113.6 183.71,113.54 178.52,116.51C172.87,119.79 175.29,128.39 169.81,131.8C164,135.15 154.33,134.05 151.85,127.03C149.92,120.47 154.88,114.31 160.37,111.36ZM178.54,162.4C180.26,172.25 194.39,170.22 197.99,162.9C198.7,156.08 198.11,149.19 198.2,142.35C189.78,146.1 177.23,151.16 178.54,162.4Z" style="fill:rgb(253,253,252);"/>
        </g>
        <g transform="matrix(1,0,0,1,-2.03802,-3.44015)">
            <path d="M309.03,128.73C296.85,128.37 299.6,118.33 299.64,121.1C297.63,119.8 301.82,125.39 303.35,121.55C319.67,121.19 335.99,121.44 352.31,121.41C352.32,123.72 352.32,126.03 352.31,128.34C348.17,128.91 341.71,128.64 340.94,134.08C339.91,143.76 340.72,153.56 340.54,163.29C348.75,155.93 356.78,148.36 364.89,140.88C368,138.2 370.31,134.58 369.98,130.31C367.47,129.53 364.92,128.89 362.35,128.32C362.34,126.01 362.32,123.7 362.32,121.39C375.31,121.38 388.3,121.33 401.28,121.43C401.17,123.75 401.02,126.07 400.85,128.39C385.94,129.61 376.08,142.02 365.65,151.25C375.22,165.08 384.2,179.32 394.01,192.99C397.67,198.44 403.68,201.8 410.27,201.97C410.27,204.3 410.29,206.64 410.31,208.98C393.51,209.43 376.69,208.64 359.89,208.93C359.87,206.61 359.86,204.29 359.87,201.97C363.15,201.5 366.77,201.49 369.53,199.39C370.24,196.39 368.02,193.86 366.59,191.46C360.81,183.01 355.02,174.57 349.21,166.15C346.09,169.83 339.88,172.35 340.46,177.97C340.73,184.23 339.83,190.62 341.09,196.79C342.06,201.41 347.61,201.38 351.3,201.96C351.3,204.24 351.31,206.52 351.32,208.8C336.08,208.94 320.83,208.52 305.6,209.23C305.57,206.8 305.54,204.38 305.53,201.95C308.84,201.49 312.75,201.82 315.38,199.36C317.89,195.77 317.35,191.141 317.43,186.99C317.2,169.99 317.71,152.96 317.2,135.97C317.24,131.47 313.29,128.57 309.03,128.73Z" style="fill:rgb(253,253,252);"/>
        </g>
        <g transform="matrix(1,0,0,1,-2.27152,-3.92416)">
            <path d="M235.68,106.56C247.13,106.6 258.59,106.35 270.04,106.72C268.93,107.86 267.81,109 266.69,110.13C266.69,112.14 266.7,114.14 266.71,116.15C269.69,116.17 272.67,116.18 275.66,116.19C275.81,112.67 275.15,109.2 272.71,106.53C282.96,106.55 293.21,106.52 303.47,106.54C303.42,108.73 303.36,110.93 303.27,113.12C301.77,111.65 300.34,110.12 298.91,108.58C297.03,108.59 295.15,108.6 293.27,108.63C293.3,111.14 293.32,113.66 293.34,116.18C294.01,116.2 295.36,116.25 296.03,116.27C297.15,115.1 298.27,113.94 299.41,112.79C299.54,115.55 299.6,118.33 299.64,121.1C297.63,119.8 295.58,118.58 293.46,117.47C293.34,120.19 293.12,122.93 293.53,125.64C297.36,128.44 301.82,125.39 303.35,121.55C303.455,121.625 309.415,121.724 309.387,121.683C309.333,121.605 309.435,122.479 309.425,124.789C309.425,124.863 309.241,128.736 309.03,128.73C296.85,128.37 284.63,128.8 272.44,128.62C275.44,125.97 275.82,122.1 275.61,118.36C272.64,118.32 269.68,118.31 266.72,118.29C266.7,120.53 266.68,122.77 266.65,125.02C267.8,126.15 268.95,127.28 270.1,128.43C265.94,128.7 261.769,128.66 257.6,128.6C263.26,123.79 260.03,115.65 260.69,109.23C259.92,108.84 259.15,108.46 258.39,108.08C257.989,109.89 257.59,111.71 257.209,113.54C255.47,110.76 253.11,108.44 249.66,108.18C250.53,114.95 246.5,124.2 253.57,128.53C248.96,128.7 244.34,128.75 239.74,128.36C241.06,127.39 242.39,126.45 243.73,125.51C243.68,119.91 243.69,114.31 243.72,108.7C242.46,108.68 241.2,108.67 239.94,108.65C238.63,110.36 237.33,112.07 236,113.76C235.85,111.36 235.76,108.96 235.68,106.56ZM281.61,109.31C281.12,114.41 281.19,119.57 281.52,124.68C281.66,127.76 285.33,126.32 287.34,126.59C287.55,120.53 287.56,114.47 287.31,108.42C285.43,108.68 283.26,108.18 281.61,109.31Z" style="fill:rgb(253,253,252);"/>
        </g>
        <g transform="matrix(1,0,0,1,-2.33652,-3.16794)">
            <path d="M46.25,195.14C65.58,195.16 84.91,195.05 104.24,195.2C104.24,197.9 104.23,200.59 104.21,203.3C98.52,204.12 90.43,202.28 86.76,207.66C84.16,217.41 86,227.74 85.54,237.74C98.99,237.7 112.44,237.73 125.89,237.71C125.58,228.33 126.46,218.88 125.39,209.55C124.74,203.79 118.06,203.43 113.57,203.18C113.54,200.51 113.52,197.83 113.49,195.16C130.789,195.1 148.09,195.1 165.39,195.19C165.39,197.85 165.38,200.52 165.37,203.19C161.99,203.56 158.32,203.46 155.32,205.29C152.39,207.52 152.38,211.6 152.25,214.94C152.23,234.65 152.23,254.35 152.23,274.05C152.36,277.49 152.3,281.53 154.96,284.11C158.02,286.2 161.91,286.19 165.45,286.75C165.41,289.37 165.37,291.99 165.32,294.61C148.05,294.6 130.78,294.72 113.5,294.55C113.52,291.93 113.53,289.33 113.51,286.72C118.15,286.24 125.03,285.65 125.46,279.66C126.37,268.74 125.68,257.73 125.81,246.77C112.37,247.01 98.92,246.44 85.5,247.1C85.52,256.2 85.45,265.31 85.48,274.42C85.66,277.66 85.67,281.42 88.02,283.95C91.02,286.11 94.91,286.18 98.43,286.78C98.42,289.37 98.43,291.96 98.45,294.55C81.06,294.72 63.67,294.59 46.28,294.62C46.26,291.98 46.26,289.35 46.25,286.71C49.83,286.14 53.91,286.23 56.89,283.87C59.17,281.18 59.19,277.36 59.38,274.02C59.36,254.67 59.35,235.32 59.39,215.97C59.16,212.42 59.23,208.21 56.57,205.5C53.59,203.45 49.77,203.57 46.32,203.21C46.3,200.52 46.27,197.83 46.25,195.14Z" style="fill:rgb(253,253,252);"/>
        </g>
        <g transform="matrix(1,0,0,1,-2.1257,-3.38391)">
            <path d="M169.97,200.94C188.77,183.5 224.41,189.16 234.43,213.58C242.53,213.58 250.63,213.57 258.73,213.59C258.79,226.74 258.59,239.89 258.79,253.04C258.63,257.27 260.92,262.71 265.98,262.23C272.38,260.98 279,255.09 278.2,248.04C277.89,240.53 278.87,232.91 277.5,225.48C276.67,221.37 271.66,221.9 268.65,220.44C268.36,218.17 268.45,215.88 268.44,213.6C279.38,213.47 290.31,213.64 301.25,213.57C301.23,227.39 301.21,241.21 301.24,255.02C301.16,258.77 302.1,263.55 306.44,264.39C310.32,265.05 311.18,269.19 312.68,272.19C301.13,271.86 289.56,272.53 278.17,274.52C278.15,271.16 278.15,267.8 278.11,264.45C268.9,275.05 251.33,278.51 240.37,268.6C233.76,261.08 236.08,250.19 235.58,241.04C231.56,253.42 220.95,263.27 208.24,266.18C190.72,270.66 169.32,263.58 161.65,246.31C155.87,231.43 157.26,211.93 169.97,200.94ZM194.34,201.35C187.07,204.17 186.04,213.01 185.55,219.77C185.29,230.39 184.55,241.53 188.38,251.65C190.54,257.97 199.6,259.96 204.24,255.26C209.05,250.57 209.2,243.29 209.65,237.02C209.75,227.45 210.49,217.6 207.7,208.32C206.19,202.8 199.78,199.12 194.34,201.35Z" style="fill:rgb(253,253,252);"/>
        </g>
        <g transform="matrix(1,0,0,1,-2.56577,-4.30451)">
            <path d="M314.01,225.03C323.78,216.51 339.35,217.3 348.88,225.81C349.55,224.05 350.21,222.29 350.88,220.53C353.13,220.52 355.38,220.5 357.64,220.49C357.65,228.59 357.65,236.69 357.65,244.8C355.47,244.81 353.3,244.82 351.12,244.82C348.98,238.9 346.34,232.68 340.93,229.02C335.86,225.34 327.41,225 323.47,230.49C320.57,235.22 322.49,241.94 327.22,244.74C337.37,251.07 349.77,253.94 358.36,262.65C368.88,273.78 365.53,293.83 351.91,300.88C340.14,307.87 324.05,305 314.76,295.16C314.05,297.33 313.35,299.51 312.66,301.69C310.26,301.63 307.87,301.58 305.48,301.52C305.54,292.16 305.5,282.8 305.48,273.43C307.89,273.37 310.31,273.34 312.73,273.3C315.14,284.26 322.34,296.7 335,296.72C343.75,297.87 350.29,286.54 344.08,279.9C334.59,271.11 320.59,268.88 311.51,259.48C302.47,249.98 303.56,233.07 314.01,225.03Z" style="fill:rgb(253,253,252);"/>
        </g>
        <g transform="matrix(1,0,0,1,-2.25368,-3.44293)">
            <path d="M365.12,228.14C375.89,211.96 400.62,209 416.1,219.87C424.39,225.54 427.17,236.04 427.19,245.58C413.45,245.57 399.72,245.56 385.98,245.59C386.37,253.39 386.96,263.08 394.37,267.61C402.78,272.79 412.77,267.5 418.53,260.82C420.78,262.15 423.02,263.5 425.26,264.85C411.4,284.02 378.43,283.44 365.24,263.8C358.64,253.24 358.56,238.74 365.12,228.14ZM389.31,224.28C386.27,228.08 386.32,233.21 385.85,237.81C392.14,238.26 398.46,238.27 404.75,237.77C404.1,233.14 403.84,228.02 400.68,224.29C397.86,220.9 392.13,220.86 389.31,224.28Z" style="fill:rgb(253,253,252);"/>
        </g>
        <g transform="matrix(1,0,0,1,-2.58973,-3.79398)">
            <path d="M275.92,305.69C276.7,305.73 278.26,305.82 279.04,305.87C278.1,309.49 276.94,313.04 275.74,316.58C278.55,314.18 283.74,311.29 285.99,315.98C289.45,325.11 280.93,341.39 269.85,336.27C268.76,340.2 267.62,344.11 266.48,348.02C267.89,348.7 269.3,349.37 270.72,350.07C266.65,350.29 262.57,350.26 258.5,350.29C260.37,348.99 262.96,348.13 263.58,345.67C266.73,336.28 269.3,326.69 272.35,317.26C270.1,320.15 268.15,323.27 265.72,326.01C268.67,319 274.03,313.19 275.92,305.69ZM65.74,315.95C63.78,307.81 70.54,298.76 79,298.79C82.71,298.84 85.35,301.68 87.83,304.06C88.9,302.35 89.94,300.63 91.1,298.98C90.9,304.27 90.09,309.52 88.82,314.66C87.79,311.72 87.23,308.64 86.11,305.75C84.35,301.24 77.94,298.75 73.97,301.94C69.8,305.04 69.05,311.65 72.31,315.66C76.43,321.19 83.65,324.77 84.98,332.08C87.03,340.39 79.52,349.06 71.08,348.68C66.44,349.02 62.83,345.74 59.75,342.73C58.67,344.57 57.58,346.4 56.43,348.19C55.95,342.45 56.68,336.7 57.98,331.11C59.16,334.32 59.73,337.75 61.23,340.84C63.73,346.12 71.14,348.61 76.03,345.06C80.47,342.42 80.98,335.96 78.03,332.02C74.12,326.55 67.28,322.93 65.74,315.95ZM191.98,276.99C196.72,271.76 206.17,269.93 211.08,275.88C215.37,280.3 213.45,287.81 208.37,290.75C208.35,287.39 209.24,283.93 208.35,280.62C206.78,277.37 202.5,276.03 199.2,277.23C190.97,279.81 186.13,290.2 189.93,298.08C192.42,299.36 195.22,299.87 197.86,300.77C197.62,302.47 197.41,304.2 196.76,305.8C192.86,306.32 190.64,301.83 187.03,301.65C181.52,303.07 178.91,309.71 179.96,314.93C181.7,323.44 188.14,330.84 196.32,333.75C205.88,337.24 217.27,334.59 224.54,327.56C229.84,322.4 231.7,313.24 226.75,307.22C221.1,299.17 206.5,301.57 204.01,311.17C202.84,314.74 205.12,318.18 208.06,320.021C210.25,316.63 209.52,311.59 214.1,310.01C216.24,312.31 218.48,315.43 216.67,318.65C214.97,323.66 207.89,324.04 204.65,320.351C199.13,314.69 202,305.11 207.56,300.56C216.79,293.39 230.34,300.04 239.29,292.29C246.15,286.53 242.42,271.72 232.08,274.71C232.39,278.09 235.32,282.39 232.21,285.22C229.69,288.09 224.83,285.39 225.17,281.8C224.23,273.84 235.17,269.3 240.97,274.04C248.16,279.76 247.31,291.9 240.92,297.92C237,301.79 231.24,302.25 226.05,302.79C236.72,311.85 232.81,328.84 222.33,336.3C210.75,344.53 193.02,344.52 182.44,334.55C171.1,325.31 171.27,301.9 187.89,298.8C184.97,291.46 185.84,282.44 191.98,276.99ZM245.02,308.89C242.19,300.52 249.13,290.47 258.01,290.44C261.82,290.37 264.44,293.49 266.87,295.97C267.84,294.14 268.84,292.33 269.91,290.55C269.87,295.93 269.23,301.32 267.71,306.48C266.43,301.08 265.37,293.39 258.63,292.37C250.02,290.84 246.17,303.59 252.39,308.58C258.39,314.33 266.82,321.22 263.62,330.68C260.54,341.44 245.48,343.5 238.84,334.82C237.67,336.49 236.48,338.15 235.21,339.76C235.12,333.97 235.86,328.2 237.06,322.54C238.78,327.73 239.18,334.49 244.73,337.23C250.63,340.97 259.709,336.34 258.91,329.05C257.97,320.23 247.58,316.99 245.02,308.89ZM140.54,300.77C142.92,300.54 145.3,300.32 147.69,300.12C145.54,307.77 142.75,315.24 140.84,322.96C144.7,319.65 147.86,315.05 152.99,313.61C154.75,313.97 155.09,315.89 156.05,317.12C154.01,316.96 151.98,316.71 149.94,316.5C147.72,318.35 145.52,320.23 143.32,322.11C148.52,324.82 147.96,331.08 148.94,336.01C150.43,334.53 151.88,333.01 153.28,331.44C154.22,331.5 155.17,331.57 156.12,331.65C156.57,333.34 157.04,335.03 157.52,336.73C159.53,336.07 161.95,335.99 163.49,334.37C165.55,328.29 157.16,323.27 160.21,317.32C162.33,313.21 167.52,313.76 171.02,315.59C170.8,316.51 170.36,318.37 170.14,319.29C168.87,317.69 167.57,316.1 166.29,314.52C157.2,317.88 168.15,325.68 166.74,331.78C165.9,338.36 156.78,339.38 153.15,334.49C151.21,335.82 149.27,338.21 146.65,337.45C141.44,334.67 148.52,325.1 142.21,324.15C137.97,326.97 138.02,333.01 136.21,337.39C135.43,337.35 133.87,337.28 133.09,337.25C133.53,335.78 133.98,334.32 134.43,332.86C132.21,334.97 129.75,336.81 127.07,338.28C126.28,336.66 125.5,335.06 124.73,333.44C122.28,335.35 119.63,338.6 116.16,337.23C114.27,335.64 113.71,333.15 112.87,330.96C110.68,334.12 107.88,338.27 103.43,337.5C100.23,337.17 99.71,333.51 98.88,331.05C97.18,334.53 91.17,341.13 88.63,335.01C89.25,328.57 92,322.56 93.78,316.38C92.33,315.97 90.88,315.56 89.44,315.13C90.99,314.8 92.55,314.51 94.11,314.22C94.98,311.61 95.88,309 96.8,306.4C97.83,306.48 98.86,306.57 99.89,306.66C99.17,309.21 98.44,311.76 97.69,314.3C99.14,314.54 100.59,314.8 102.03,315.06C100.38,315.53 98.72,315.94 97.05,316.35C95.03,322.93 92.25,329.45 92.08,336.43C101.13,330.47 101.13,316.63 112.36,313.12C119.94,319.601 108.68,326.08 103.04,328.42C102.91,330.76 102.25,333.34 103.62,335.47C107.99,336.93 110.74,332.11 113.08,329.28C115.67,323.63 118.33,317.13 124.48,314.53C127.64,313.98 130.869,314.58 134.06,314.46C132.04,321.571 129.21,328.49 128.17,335.85C131.24,333.85 134.73,331.63 135.83,327.92C138.47,319.67 140.83,311.34 143.45,303.1C142.47,302.32 141.51,301.54 140.54,300.77ZM332.48,313.51C333.19,310.86 333.95,308.22 334.74,305.59C335.57,305.62 337.23,305.69 338.06,305.72C337.3,308.29 336.52,310.86 335.72,313.42C336.71,313.81 338.68,314.57 339.66,314.96C338.15,315.17 336.64,315.37 335.14,315.56C333.27,322.36 330.73,328.96 329.3,335.87C333.32,335.08 335,331.06 337.53,328.33C336.23,333.12 332.94,337.55 327.65,338.03C325.26,330.35 329.9,322.93 331.78,315.62C330.61,315.34 329.44,315.06 328.27,314.78C329.67,314.35 331.07,313.93 332.48,313.51ZM314.28,320.2C316.07,316.44 319.09,312.99 323.61,313.08C325.91,321.01 319.4,327.81 318.88,335.53C322.26,335.27 324.05,331.92 326.57,330.1C324.76,334.22 321.44,337.76 316.67,337.94C313.66,329.7 321.05,322.7 321.47,314.65C318.79,316.12 316.6,318.27 314.28,320.2ZM287.21,320.48C288.8,317.07 293.54,310.56 297.37,314.79C298.25,322.35 291.64,328.63 292.38,336.31C294.87,334.48 297.19,332.44 299.66,330.6C297.61,333.71 295.05,338.25 290.63,337.51C289.36,336.44 288.15,334.86 288.86,333.13C290.31,327.24 292.86,321.7 294.75,315.95C294.34,315.71 293.52,315.23 293.1,314.99C291.21,316.9 289.3,318.79 287.21,320.48ZM342.8,318.12C344.27,312.36 354.21,311.39 354.66,318.32C351.79,316.31 348.83,313.44 345.21,315.76C345.58,321.55 350.57,326.14 350.2,331.92C348.77,338.39 340.41,339.05 336.12,334.99C336.98,333.63 337.57,332.12 338.6,330.88C339.35,332.89 340.14,334.9 340.93,336.9C343.15,335.95 346.66,335.88 347,332.84C347.34,327.57 341.81,323.48 342.8,318.12ZM271.36,332.25C270.69,334.29 272.88,335.59 273.77,337.16C281.19,332.75 285.27,322.1 282.33,313.99C274.85,316.89 272.9,325.26 271.36,332.25ZM298.5,320.491C299.71,316.56 302.17,313.04 306.29,311.83C307.11,314.62 307.45,317.51 307.52,320.41C308.83,317.77 310.26,315.19 311.82,312.68C312.77,312.66 314.66,312.61 315.6,312.58C315.53,313.99 315.5,315.4 315.48,316.81C314.03,316.32 312.58,315.84 311.13,315.37C308.06,321.2 305.52,327.29 303.57,333.59C303.07,335.62 301.24,336.54 299.35,336.94C300.75,329.12 304.95,321.87 304.68,313.78C302.56,315.96 300.62,318.31 298.5,320.491ZM123.95,316.88C119.21,322.07 115.32,329.57 117.83,336.69C125.36,333.8 128.14,325.28 129.289,318.01C129.46,314.7 125.5,314.75 123.95,316.88ZM103.97,326.63C106.2,325.38 108.67,323.818 110.404,321.828C112.138,319.838 113.135,317.42 112.42,314.46C107.59,316.75 105.1,321.631 103.97,326.63ZM321.46,305.22C322.75,305.35 324.04,305.48 325.34,305.62C325.3,306.68 325.21,308.8 325.16,309.86C323.52,309.68 321.91,309.3 320.32,308.86C320.61,307.95 321.18,306.13 321.46,305.22ZM293.29,306.81C294.09,306.02 294.9,305.24 295.71,304.46C296.44,304.82 297.92,305.54 298.66,305.91C298.47,307 298.29,308.09 298.1,309.19C297.05,309.37 296.01,309.54 294.96,309.73C294.54,309 293.71,307.54 293.29,306.81Z" style="fill:rgb(253,253,252);"/>
        </g>
    </g>
</svg>
